<svg width="305" height="44" viewBox="0 0 305 44" fill="none" xmlns="http://www.w3.org/2000/svg">
<path d="M20.205 0.000321559C22.2652 -0.0172807 24.2651 0.688291 25.8495 1.99178C27.434 3.29527 28.5006 5.11234 28.86 7.12043C30.7965 6.39092 32.9325 6.36923 34.8837 7.05927C36.835 7.74931 38.4735 9.1058 39.5047 10.8848L39.5082 10.8919L39.5481 10.9668C40.5444 12.7219 40.8933 14.7652 40.535 16.7469C40.1767 18.7286 39.1335 20.5253 37.5841 21.8294C39.1874 23.1342 40.2718 24.9592 40.6447 26.9803C41.0177 29.0014 40.6551 31.0879 39.6214 32.8696L39.5994 32.9061L39.5743 32.9409C38.5494 34.6775 36.9416 36.0034 35.031 36.6878C33.1203 37.3721 31.0277 37.3717 29.1174 36.6864C28.8049 38.7094 27.7752 40.5563 26.2125 41.8963C24.6499 43.2363 22.6563 43.9819 20.5889 43.9997C18.5215 44.0174 16.5152 43.3061 14.9293 41.9931C13.3434 40.6801 12.2815 38.8512 11.9337 36.8338C10.0629 37.5386 8.00385 37.5835 6.10354 36.9609C4.20322 36.3384 2.57778 35.0865 1.50109 33.4162L1.47845 33.3808L1.51837 33.4468L1.28723 33.0742C1.27962 33.0619 1.27247 33.0493 1.26579 33.0364L1.24792 32.9975C0.250851 31.2429 -0.0986857 29.1997 0.259205 27.218C0.617096 25.2363 1.66013 23.4395 3.20957 22.1355C1.60256 20.831 0.515655 19.0041 0.14254 16.9804C-0.230574 14.9567 0.134342 12.8675 1.17226 11.0853L1.19371 11.0493L1.21753 11.0139C2.24528 9.27962 3.85351 7.95577 5.76363 7.27172C7.67375 6.58767 9.76542 6.58651 11.6763 7.26843C12.0005 5.25444 13.0352 3.4193 14.5966 2.08882C16.1581 0.758337 18.1454 0.0185916 20.2056 0.000911216L20.205 0.000321559ZM20.2527 1.50925C16.3866 1.52341 13.2645 4.63797 13.2788 8.46485C13.2895 8.62464 13.2549 8.78444 13.1787 8.92537C13.1258 9.02379 13.0538 9.1109 12.9668 9.18172C12.8799 9.25253 12.7796 9.30566 12.6719 9.33803C12.5641 9.37041 12.451 9.38141 12.3389 9.3704C12.2268 9.35938 12.1181 9.32658 12.0188 9.27386L11.8556 9.19013C8.57329 7.56149 4.56003 8.72194 2.68773 11.8713C2.67735 11.8939 2.66582 11.9159 2.65318 11.9373L2.56204 12.0983C0.787436 15.3414 1.8746 19.4101 5.06757 21.3536C5.20343 21.4223 5.31848 21.5254 5.40104 21.6524C5.48359 21.7795 5.53071 21.9258 5.53761 22.0767C5.54451 22.2276 5.51094 22.3776 5.44031 22.5114C5.36968 22.6453 5.26451 22.7583 5.13548 22.8389L4.94426 22.961L4.82333 23.0435C3.42569 24.0203 2.43458 25.4669 2.03475 27.1135C1.63492 28.7602 1.85367 30.4945 2.6502 31.9933L2.73956 32.1561C2.75445 32.1767 2.76875 32.1974 2.78126 32.2198L2.87657 32.379C4.81261 35.5195 8.90927 36.6227 12.194 34.8549C12.3212 34.7722 12.4685 34.7245 12.6206 34.7169C12.7727 34.7093 12.924 34.742 13.0591 34.8117C13.1941 34.8813 13.3079 34.9854 13.3887 35.1132C13.4696 35.2409 13.5145 35.3877 13.5188 35.5384L13.5301 35.8308L13.5147 35.5425L13.5182 35.7335C13.5554 36.8833 13.8811 38.0058 14.4659 38.9998C15.0508 39.9938 15.8765 40.828 16.8685 41.4273L17.0383 41.5263C18.1048 42.1306 19.3133 42.4464 20.5422 42.4418C21.7711 42.4373 22.9772 42.1126 24.0392 41.5004C25.1011 40.8882 25.9816 40.0101 26.592 38.9543C27.2025 37.8986 27.5214 36.7023 27.5167 35.4859C27.506 35.3346 27.5365 35.1832 27.6049 35.0475C27.6734 34.9118 27.7774 34.7967 27.906 34.7143C28.0347 34.6318 28.1833 34.5851 28.3364 34.5788C28.4895 34.5725 28.6415 34.607 28.7766 34.6786L28.9428 34.7635C32.2216 36.3863 36.2283 35.227 38.1006 32.083L38.1345 32.0157C40.039 28.7502 38.9721 24.5802 35.7297 22.6048C35.5934 22.5362 35.478 22.4331 35.3951 22.3059C35.3123 22.1787 35.265 22.032 35.2581 21.8808C35.2512 21.7297 35.2849 21.5794 35.3558 21.4453C35.4267 21.3113 35.5323 21.1982 35.6618 21.1177C37.1939 20.1658 38.2976 18.6672 38.7445 16.9321C39.1913 15.197 38.9472 13.3582 38.0625 11.7964C38.0483 11.7765 38.0351 11.7558 38.0231 11.7345L37.9278 11.5759C35.9942 8.43124 31.8939 7.32858 28.6098 9.10168C28.4779 9.18731 28.3249 9.23581 28.1672 9.24201C27.9392 9.24917 27.7176 9.16643 27.5512 9.01197C27.3847 8.85751 27.2871 8.64397 27.2796 8.41826C27.2659 4.58549 24.1194 1.49451 20.2533 1.50925H20.2527ZM14.7936 23.9074C15.0012 23.4994 15.3593 23.1861 15.7938 23.0323C16.2283 22.8785 16.7059 22.896 17.1277 23.0812C17.5495 23.2665 17.8832 23.6052 18.0596 24.0273C18.236 24.4493 18.2417 24.9224 18.0754 25.3485C17.7704 25.9924 17.7537 26.3727 17.9598 26.8262L19.5265 30.1283C19.8327 30.7928 20.4975 31.0175 21.0396 31.1484C21.8696 31.3465 22.6127 31.8049 23.1581 32.4552C23.7035 33.1054 24.0219 33.9128 24.066 34.7568C24.1101 35.6008 23.8774 36.4363 23.4026 37.1388C22.9279 37.8413 22.2365 38.373 21.4315 38.6548C20.6266 38.9366 19.7512 38.9534 18.9358 38.7026C18.1204 38.4518 17.4088 37.9468 16.907 37.2631C16.4052 36.5793 16.14 35.7533 16.1511 34.9082C16.1622 34.0631 16.449 33.2442 16.9686 32.5736C17.4052 32.0081 17.5363 31.6124 17.3695 30.9031L16.5295 27.3333C16.414 26.8733 16.1757 26.6422 15.4984 26.2548C15.0995 26.0273 14.8041 25.657 14.673 25.2202C14.5419 24.7835 14.5851 24.3135 14.7936 23.9074ZM15.431 18.2532C15.893 18.2297 16.3465 18.3827 16.6978 18.6807C17.0491 18.9786 17.2715 19.3986 17.3189 19.8541C17.3664 20.3096 17.2354 20.7658 16.9529 21.1284C16.6704 21.491 16.2581 21.7325 15.801 21.8029C15.0861 21.8613 14.7454 22.037 14.4499 22.4415L12.3518 25.4381C11.9259 26.0337 12.0599 26.7177 12.2196 27.2495C12.4611 28.0636 12.4303 28.9331 12.1317 29.7283C11.833 30.5235 11.2826 31.2019 10.5626 31.6621C9.84253 32.1223 8.99145 32.3397 8.13635 32.2818C7.28124 32.2239 6.46796 31.8939 5.81787 31.341C5.16778 30.7881 4.71574 30.042 4.5292 29.2139C4.34266 28.3859 4.43162 27.5203 4.78282 26.7464C5.13401 25.9725 5.72861 25.3317 6.47787 24.9198C7.22713 24.5078 8.09089 24.3467 8.94025 24.4605C9.6539 24.5548 10.0643 24.4699 10.5999 23.9716L13.2943 21.4638C13.6398 21.1342 13.7196 20.814 13.7196 20.0386C13.7193 19.5805 13.8968 19.1398 14.2154 18.8075C14.534 18.4752 14.9694 18.2767 15.4316 18.2532H15.431ZM28.8493 25.5171C29.3007 25.043 29.8647 24.6881 30.49 24.4848C31.1153 24.2816 31.782 24.2363 32.4295 24.3532C33.1079 24.4744 33.7428 24.7682 34.2717 25.2058C34.8007 25.6434 35.2055 26.2097 35.4464 26.849C35.6874 27.4883 35.7561 28.1787 35.6459 28.8523C35.5357 29.5259 35.2504 30.1595 34.8179 30.6909C34.3855 31.2223 33.8208 31.6332 33.1793 31.8832C32.5379 32.1332 31.8418 32.2137 31.1594 32.1168C30.477 32.0199 29.8318 31.7489 29.2873 31.3304C28.7427 30.912 28.3175 30.3606 28.0534 29.7302C27.7794 29.0692 27.5006 28.7603 26.7965 28.5486L23.2663 27.4866C22.8047 27.3557 22.4866 27.4453 21.8116 27.8327C21.4436 28.0459 21.0105 28.1212 20.591 28.045C20.1302 27.9506 19.7248 27.6817 19.4614 27.2957C19.1979 26.9097 19.0972 26.4371 19.1806 25.9787C19.264 25.5202 19.525 25.1122 19.908 24.8415C20.291 24.5707 20.7657 24.4588 21.2308 24.5295C21.6552 24.6044 22.0376 24.8292 22.3073 25.1622C22.7159 25.7483 23.0412 25.9547 23.5368 26.0012L27.2016 26.3067C27.9343 26.3757 28.4692 25.9175 28.8481 25.5165L28.8493 25.5171ZM28.7224 12.2062C29.1855 11.7104 29.7698 11.3409 30.419 11.1334C31.0682 10.9259 31.7605 10.8874 32.4291 11.0215C33.0977 11.1556 33.7201 11.4579 34.2365 11.8992C34.7529 12.3405 35.1458 12.906 35.3774 13.5412C35.6089 14.1764 35.6714 14.8599 35.5587 15.5259C35.446 16.1919 35.1619 16.8179 34.7339 17.3438C34.3059 17.8696 33.7483 18.2775 33.1149 18.5282C32.4814 18.7788 31.7934 18.8638 31.1171 18.775C30.4059 18.6795 29.9948 18.7656 29.4593 19.2638L26.7691 21.7699C26.423 22.1007 26.3432 22.4191 26.3432 23.1968C26.3435 23.4842 26.2738 23.7673 26.1398 24.0222C26.0058 24.2771 25.8116 24.4961 25.5737 24.6607C25.3358 24.8253 25.0612 24.9306 24.7734 24.9675C24.4855 25.0044 24.1929 24.972 23.9204 24.8729C23.648 24.7738 23.4038 24.611 23.2086 24.3984C23.0134 24.1857 22.8729 23.9295 22.7993 23.6516C22.7256 23.3737 22.7209 23.0823 22.7855 22.8022C22.8502 22.5221 22.9822 22.2616 23.1704 22.0429C23.4481 21.7156 23.8359 21.4986 24.2624 21.432C24.979 21.3742 25.3197 21.1979 25.6092 20.7934L27.7061 17.7973C28.1332 17.1994 27.9968 16.5178 27.8402 15.9842C27.6523 15.3579 27.625 14.6952 27.7608 14.0559C27.8965 13.4166 28.1909 12.8208 28.6176 12.3224L28.7224 12.2062ZM19.9465 4.32015C20.6901 4.3198 21.419 4.52604 22.0501 4.91541C22.6812 5.30478 23.1892 5.86165 23.5164 6.52268C23.8436 7.18371 23.9769 7.92237 23.9009 8.65463C23.825 9.3869 23.543 10.0834 23.087 10.6649C22.6557 11.2274 22.5193 11.6225 22.6957 12.3418L23.5356 15.8998C23.6512 16.3627 23.8894 16.5927 24.565 16.9789C24.8624 17.1486 25.1045 17.3991 25.2627 17.7007C25.4208 18.0023 25.4884 18.3424 25.4574 18.6809C25.4264 19.0193 25.2981 19.3419 25.0877 19.6104C24.8773 19.8789 24.5937 20.0822 24.2702 20.1962C23.9468 20.3101 23.5972 20.33 23.2627 20.2535C22.9282 20.177 22.6229 20.0072 22.3828 19.7643C22.1427 19.5214 21.9779 19.2155 21.908 18.8828C21.838 18.5501 21.8658 18.2045 21.988 17.887C22.2924 17.2425 22.3114 16.861 22.1035 16.4093L20.5386 13.1054C20.23 12.4409 19.5676 12.2162 19.0255 12.0871L19.0172 12.0906C18.1859 11.8901 17.442 11.43 16.8955 10.7783C16.3491 10.1267 16.0292 9.31815 15.9831 8.47248C15.9371 7.6268 16.1674 6.78893 16.6399 6.08292C17.1124 5.3769 17.8021 4.84027 18.6067 4.55247C19.0362 4.3982 19.4896 4.31957 19.9465 4.32015ZM7.53915 11.1584C8.4436 10.9744 9.38453 11.108 10.2003 11.5362C11.016 11.9643 11.6557 12.6604 12.0093 13.5046C12.2833 14.1639 12.5633 14.4746 13.2657 14.6863L16.7982 15.7477C17.2581 15.8792 17.5774 15.7878 18.2529 15.3998C18.5514 15.2288 18.8932 15.146 19.2378 15.1613C19.5824 15.1766 19.9153 15.2893 20.1972 15.4861C20.4791 15.6828 20.6981 15.9554 20.8283 16.2716C20.9586 16.5877 20.9946 16.9342 20.9321 17.2699C20.8696 17.6057 20.7112 17.9167 20.4757 18.1661C20.2402 18.4156 19.9374 18.593 19.6032 18.6774C19.2689 18.7618 18.9173 18.7497 18.5898 18.6424C18.2624 18.5351 17.9728 18.3372 17.7555 18.0721C17.3468 17.486 17.0228 17.2802 16.5254 17.2336L12.863 16.9282C12.1302 16.8586 11.5953 17.3156 11.2164 17.7183C10.7644 18.1918 10.2001 18.5462 9.57472 18.7494C8.94936 18.9525 8.28267 18.998 7.63506 18.8817C6.72635 18.7198 5.90299 18.2496 5.30646 17.552C4.70993 16.8544 4.37746 15.9729 4.36618 15.059C4.3549 14.1451 4.66552 13.2559 5.24466 12.5441C5.8238 11.8322 6.6353 11.3423 7.53975 11.1584H7.53915ZM67.7393 29.0191C66.8096 30.0391 65.7143 30.898 64.4986 31.5605C63.2834 32.2221 61.7066 32.5523 59.7681 32.5512C58.3742 32.5635 56.9921 32.2941 55.7078 31.7592C54.5071 31.2668 53.4172 30.5432 52.5012 29.6305C51.5853 28.7178 50.8616 27.6341 50.3721 26.4423C49.8625 25.2131 49.6054 23.8957 49.6155 22.5671V22.494C49.6065 21.1601 49.8636 19.8375 50.3721 18.6022C50.8617 17.4084 51.5794 16.3193 52.4856 15.3945C53.401 14.4677 54.4948 13.732 55.7024 13.231C57.011 12.6917 58.4169 12.4223 59.8343 12.4391C61.6809 12.4391 63.2101 12.7275 64.4224 13.3042C65.638 13.8813 66.7269 14.6895 67.6273 15.6828L64.2389 19.2803C63.6659 18.6764 63.0107 18.1544 62.2921 17.7295C61.5251 17.3224 60.6624 17.1246 59.7926 17.1564C59.1319 17.1472 58.4779 17.2888 57.8815 17.5703C57.3111 17.8458 56.8027 18.2325 56.3869 18.7072C55.9536 19.202 55.6198 19.7742 55.4034 20.393C55.1726 21.0439 55.0573 21.7293 55.0627 22.4191V22.4904C55.0567 23.2021 55.1741 23.9097 55.4088 24.5825C55.626 25.2045 55.9662 25.7774 56.4095 26.2678C56.8473 26.7493 57.3806 27.1363 57.9762 27.4046C58.6178 27.6874 59.3138 27.8286 60.0159 27.8186C60.858 27.8355 61.6908 27.6422 62.4375 27.2566C63.1832 26.8437 63.8741 26.3406 64.4944 25.7589L67.7393 29.0191ZM75.241 32.1183H69.7009V5.79665H75.2374L75.241 32.1189V32.1183ZM98.7272 22.494C98.7349 23.8362 98.4611 25.1654 97.923 26.3975C97.3993 27.592 96.6445 28.6736 95.701 29.5811C94.7336 30.5065 93.5965 31.2406 92.3508 31.7439C91.0105 32.2823 89.5748 32.5517 88.1272 32.5364C86.6935 32.5498 85.2708 32.2864 83.9388 31.761C82.6992 31.2777 81.5668 30.5595 80.6053 29.6465C79.6683 28.7421 78.92 27.6642 78.403 26.4741C77.865 25.2397 77.5923 23.9079 77.6023 22.5635V22.4904C77.592 21.146 77.8647 19.8142 78.403 18.5798C78.9262 17.3852 79.6807 16.3034 80.6237 15.3957C81.5904 14.4689 82.728 13.7346 83.9746 13.2328C85.3149 12.6945 86.7506 12.425 88.1981 12.4409C89.6319 12.4275 91.0546 12.6909 92.3865 13.2163C93.6269 13.7024 94.7588 14.4246 95.7183 15.342C96.6553 16.2464 97.4036 17.3243 97.9206 18.5144C98.4586 19.7488 98.7313 21.0806 98.7213 22.425L98.7272 22.494ZM93.2646 22.5671V22.494C93.27 21.7982 93.1475 21.1073 92.903 20.4549C92.665 19.826 92.304 19.2497 91.8408 18.7589C91.3775 18.2682 90.8211 17.8727 90.2033 17.5951C89.5499 17.3015 88.8393 17.1537 88.1219 17.1623C87.3901 17.1487 86.6639 17.2898 85.9916 17.5762C85.3893 17.8414 84.8499 18.2287 84.4083 18.7131C83.9649 19.2039 83.624 19.7766 83.4051 20.3983C83.175 21.0475 83.0597 21.7311 83.0643 22.4191V22.4904C83.0607 23.1848 83.1844 23.8741 83.4295 24.5247C83.9098 25.7893 84.8709 26.8176 86.1072 27.3899C86.7635 27.686 87.4782 27.8336 88.1993 27.8221C88.9313 27.8358 89.6577 27.6946 90.3301 27.4082C90.9324 27.1432 91.4718 26.7561 91.9135 26.2719C92.3559 25.7837 92.6968 25.2141 92.9167 24.5955C93.149 23.9428 93.2658 23.2552 93.261 22.5635L93.2646 22.5671ZM118.574 32.1189H113.034V29.3753C112.716 29.7887 112.369 30.1806 111.998 30.5481C111.616 30.9231 111.196 31.2557 110.741 31.5387C110.264 31.8335 109.75 32.0641 109.21 32.2239C108.596 32.4004 107.958 32.4859 107.318 32.4774C105.207 32.4774 103.575 31.8406 102.422 30.567C101.269 29.2933 100.692 27.5391 100.692 25.3043V12.7947H106.227V23.573C106.227 24.8703 106.518 25.8491 107.101 26.5095C107.684 27.1699 108.509 27.5007 109.578 27.5019C110.644 27.5019 111.488 27.1717 112.107 26.5095C112.727 25.8479 113.037 24.8691 113.037 23.573V12.7947H118.572L118.574 32.1183V32.1189ZM141.26 32.1189H135.722V29.3399C135.055 30.2382 134.22 31.0012 133.262 31.5871C132.305 32.1755 131.097 32.4698 129.639 32.4715C128.503 32.4742 127.377 32.2558 126.326 31.8288C125.253 31.3926 124.285 30.7358 123.488 29.9018C122.627 28.9955 121.953 27.9328 121.501 26.7725C120.98 25.4083 120.727 23.9585 120.754 22.5005V22.4297C120.727 20.9715 120.98 19.5214 121.501 18.157C121.949 16.9978 122.616 15.9339 123.467 15.0224C124.256 14.185 125.219 13.5267 126.29 13.0931C127.353 12.6619 128.491 12.4417 129.639 12.445C131.121 12.445 132.342 12.734 133.3 13.3106C134.212 13.8491 135.03 14.5301 135.722 15.3273V5.79665H141.256L141.26 32.1189ZM135.797 22.4946V22.4238C135.808 21.6803 135.679 20.9413 135.419 20.2438C135.188 19.6212 134.842 19.0464 134.399 18.5486C133.985 18.0879 133.476 17.7196 132.906 17.4683C132.326 17.2189 131.7 17.0901 131.067 17.0901C130.435 17.0901 129.809 17.2189 129.228 17.4683C128.654 17.7219 128.139 18.0896 127.715 18.5486C127.264 19.0403 126.913 19.6125 126.678 20.2344C126.415 20.9376 126.286 21.6833 126.299 22.4332V22.504C126.289 23.2481 126.417 23.9876 126.678 24.6857C126.911 25.3081 127.263 25.8804 127.714 26.3715C128.139 26.8313 128.654 27.1998 129.228 27.4542C129.809 27.7036 130.435 27.8323 131.067 27.8323C131.7 27.8323 132.326 27.7036 132.906 27.4542C133.476 27.202 133.985 26.833 134.399 26.3715C134.841 25.8766 135.187 25.3051 135.419 24.6857C135.68 23.984 135.807 23.2393 135.794 22.491L135.797 22.4946ZM169.169 32.1189H163.813V30.0257C163.127 30.775 162.297 31.3816 161.372 31.81C160.426 32.2546 159.273 32.4769 157.913 32.4769C157.032 32.4833 156.154 32.3571 155.31 32.1024C154.53 31.8679 153.806 31.4814 153.179 30.9656C152.569 30.4576 152.079 29.8241 151.741 29.1093C151.376 28.3119 151.195 27.4435 151.214 26.5679V26.4971C151.189 25.5512 151.388 24.6126 151.797 23.757C152.173 23.0003 152.728 22.3449 153.416 21.8465C154.162 21.3171 155.002 20.9321 155.893 20.712C156.934 20.4507 158.005 20.3246 159.079 20.337C159.951 20.3263 160.823 20.3986 161.682 20.5528C162.419 20.6932 163.144 20.883 163.854 21.1218V20.7975C163.854 19.6442 163.503 18.7703 162.799 18.1759C162.095 17.5815 161.051 17.2814 159.667 17.2749C158.719 17.2631 157.773 17.3539 156.844 17.545C155.971 17.7428 155.113 18.002 154.277 18.3204L152.881 14.1291C153.965 13.6657 155.086 13.2899 156.231 13.0052C157.616 12.6931 159.034 12.5478 160.455 12.5724C163.489 12.5724 165.697 13.3053 167.077 14.7712C168.456 16.2371 169.15 18.2797 169.158 20.8989L169.169 32.1189H169.169ZM163.926 25.3078V24.3378C162.813 23.8546 161.61 23.6089 160.394 23.6167C159.203 23.6167 158.268 23.8449 157.59 24.3019C157.261 24.5162 156.994 24.8115 156.815 25.1589C156.636 25.5062 156.552 25.8937 156.57 26.2831V26.3562C156.554 26.6908 156.623 27.0241 156.769 27.3261C156.915 27.6282 157.135 27.8896 157.408 28.0869C157.967 28.4955 158.695 28.6995 159.592 28.6995C160.902 28.6995 161.952 28.387 162.742 27.7631C163.121 27.4753 163.426 27.1022 163.632 26.6747C163.837 26.2472 163.937 25.7774 163.922 25.3043L163.926 25.3078ZM189.23 29.0197C188.3 30.0378 187.206 30.8955 185.991 31.5576C184.776 32.2192 183.2 32.5494 181.261 32.5482C179.867 32.5604 178.486 32.2907 177.201 31.7557C176 31.2632 174.91 30.5396 173.994 29.6269C173.078 28.7141 172.355 27.6305 171.865 26.4388C171.356 25.2097 171.099 23.8926 171.109 22.5641V22.491C171.1 21.1571 171.357 19.8346 171.865 18.5993C172.355 17.4055 173.072 16.3164 173.978 15.3915C174.894 14.4645 175.988 13.7287 177.195 13.2275C178.504 12.6881 179.91 12.4186 181.328 12.4356C183.172 12.4356 184.702 12.7245 185.916 13.3012C187.131 13.8791 188.22 14.6869 189.121 15.6793L185.734 19.2809C185.16 18.6769 184.504 18.1549 183.785 17.7301C183.119 17.3457 182.288 17.1534 181.291 17.1534C180.631 17.1442 179.977 17.2859 179.38 17.5674C178.81 17.8431 178.303 18.2297 177.887 18.7042C177.454 19.1989 177.12 19.7709 176.904 20.3895C176.67 21.0432 176.553 21.7321 176.558 22.4256V22.4963C176.554 23.2066 176.673 23.9123 176.909 24.5831C177.126 25.2051 177.467 25.778 177.91 26.2684C178.348 26.7499 178.881 27.1369 179.477 27.4052C180.118 27.6883 180.814 27.8298 181.516 27.8192C182.358 27.8363 183.19 27.643 183.936 27.2572C184.683 26.8447 185.374 26.3416 185.995 25.7595L189.23 29.0197ZM207.729 32.1189H202.376V30.0257C201.69 30.7742 200.86 31.3806 199.936 31.81C198.99 32.2546 197.836 32.4769 196.477 32.4769C195.595 32.4836 194.717 32.3573 193.874 32.1024C193.094 31.8684 192.369 31.4818 191.743 30.9656C191.133 30.4571 190.642 29.8238 190.303 29.1093C189.937 28.3119 189.757 27.4435 189.775 26.5679V26.4971C189.751 25.5513 189.951 24.613 190.358 23.757C190.736 23.0006 191.292 22.3453 191.979 21.8465C192.725 21.3167 193.566 20.9317 194.456 20.712C195.497 20.4506 196.568 20.3245 197.642 20.337C198.515 20.3264 199.387 20.3986 200.245 20.5528C200.98 20.6955 201.704 20.8889 202.412 21.1295V20.7981C202.412 19.6442 202.061 18.7703 201.356 18.1759C200.653 17.5815 199.609 17.2814 198.225 17.2749C197.277 17.2633 196.33 17.3538 195.402 17.545C194.528 17.7428 193.67 18.002 192.834 18.3204L191.452 14.1379C192.535 13.6746 193.655 13.2989 194.801 13.0146C196.186 12.7025 197.605 12.5572 199.025 12.5818C202.06 12.5818 204.268 13.3148 205.647 14.7807C207.027 16.2465 207.721 18.2891 207.729 20.9084V32.1189ZM202.484 25.3078V24.3378C201.963 24.1098 201.421 23.9345 200.864 23.8148C200.236 23.6788 199.595 23.6124 198.952 23.6167C197.764 23.6167 196.829 23.8449 196.148 24.3019C195.819 24.5164 195.552 24.8118 195.374 25.1592C195.195 25.5065 195.111 25.8938 195.129 26.2831V26.3562C195.114 26.6906 195.182 27.0237 195.328 27.3257C195.474 27.6277 195.693 27.8892 195.966 28.0869C196.523 28.4955 197.252 28.6995 198.151 28.6995C199.462 28.6995 200.512 28.387 201.302 27.7631C201.682 27.4756 201.987 27.1026 202.193 26.675C202.398 26.2475 202.498 25.7776 202.484 25.3043V25.3078ZM230.233 32.1189H224.697V29.3399C224.03 30.2388 223.195 31.0019 222.236 31.5871C221.28 32.1755 220.072 32.4698 218.613 32.4715C217.477 32.4715 216.351 32.251 215.301 31.8212C214.228 31.3849 213.26 30.7281 212.463 29.8942C211.604 28.99 210.93 27.93 210.478 26.7725C209.954 25.4089 209.697 23.9591 209.721 22.5005V22.4297C209.697 20.9703 209.954 19.5209 210.478 18.157C210.926 16.9978 211.593 15.9339 212.444 15.0224C213.233 14.185 214.196 13.5268 215.267 13.0931C216.329 12.6616 217.467 12.4414 218.616 12.445C220.096 12.445 221.317 12.734 222.276 13.3106C223.188 13.8486 224.006 14.5297 224.697 15.3273V5.79665H230.233V32.1189ZM224.778 22.491V22.4203C224.788 21.6766 224.66 20.9374 224.399 20.2397C224.168 19.6173 223.822 19.0427 223.38 18.545C222.965 18.0841 222.456 17.7157 221.887 17.4642C221.306 17.2147 220.68 17.086 220.048 17.086C219.415 17.086 218.789 17.2147 218.209 17.4642C217.635 17.7179 217.12 18.0858 216.695 18.545C216.245 19.0366 215.893 19.6085 215.659 20.2303C215.395 20.9336 215.266 21.6796 215.28 22.4297V22.5005C215.269 23.2445 215.398 23.9841 215.658 24.6822C215.892 25.3045 216.243 25.8768 216.695 26.368C217.119 26.8276 217.634 27.1959 218.209 27.45C218.789 27.6995 219.415 27.8282 220.048 27.8282C220.68 27.8282 221.306 27.6995 221.887 27.45C222.456 27.198 222.965 26.8292 223.38 26.368C223.822 25.8731 224.167 25.3015 224.399 24.6822C224.661 23.9811 224.79 23.2381 224.778 22.491ZM251.507 22.9969C251.507 23.2605 251.507 23.4893 251.488 23.6821C251.469 23.8749 251.457 24.1014 251.433 24.3661H237.85C238.117 25.6144 238.67 26.5573 239.507 27.1953C240.345 27.8333 241.383 28.1517 242.621 28.1505C243.47 28.1649 244.313 28.0055 245.097 27.6824C245.927 27.3023 246.69 26.7913 247.355 26.1693L250.51 28.943C249.604 30.06 248.46 30.9649 247.159 31.593C245.848 32.2298 244.307 32.5482 242.534 32.5482C241.147 32.561 239.77 32.3164 238.474 31.8271C237.261 31.3699 236.158 30.6683 235.233 29.7668C234.317 28.8692 233.593 27.7986 233.103 26.6186C232.582 25.33 232.325 23.9519 232.346 22.5641V22.491C232.339 21.1617 232.579 19.8423 233.055 18.5993C233.504 17.4145 234.178 16.3257 235.04 15.3915C235.924 14.4413 237 13.6867 238.198 13.1772C239.397 12.6678 240.691 12.415 241.995 12.4356C243.622 12.4356 245.031 12.7245 246.22 13.3012C247.371 13.8479 248.383 14.6418 249.185 15.6251C249.984 16.6183 250.577 17.7576 250.931 18.9778C251.312 20.2592 251.503 21.5883 251.499 22.9238L251.506 22.9969H251.507ZM246.116 20.9367C245.946 19.709 245.509 18.7178 244.805 17.9625C244.101 17.2077 243.165 16.8303 241.995 16.8333C240.831 16.8333 239.891 17.2077 239.174 17.9571C238.458 18.706 237.99 19.7049 237.772 20.9532L246.116 20.9367H246.116ZM283.514 32.1101H277.98V21.34C277.98 20.0428 277.7 19.0633 277.142 18.4012C276.583 17.7396 275.778 17.4082 274.728 17.407C273.683 17.407 272.863 17.7372 272.268 18.3976C271.672 19.058 271.377 20.0386 271.38 21.34V32.116H265.846V21.3406C265.846 20.0434 265.567 19.0639 265.008 18.4017C264.449 17.7402 263.649 17.4088 262.605 17.4076C261.561 17.4076 260.741 17.7378 260.145 18.3982C259.55 19.0586 259.253 20.0392 259.255 21.3406V32.1166H253.726V12.7947H259.26V15.5348C259.58 15.1221 259.927 14.73 260.299 14.3626C260.679 13.987 261.101 13.655 261.555 13.372C262.037 13.0739 262.558 12.8431 263.103 12.6862C263.724 12.5121 264.368 12.4275 265.014 12.435C266.176 12.4048 267.325 12.6781 268.346 13.2275C269.28 13.755 270.034 14.5457 270.512 15.4989C271.287 14.5491 272.254 13.7699 273.35 13.211C274.462 12.679 275.684 12.4132 276.918 12.435C278.983 12.435 280.598 13.0359 281.762 14.237C282.926 15.4381 283.509 17.2042 283.511 19.5351L283.514 32.1095V32.1101ZM305 12.7947L297.491 32.5777C297.18 33.4466 296.79 34.2854 296.325 35.0837C295.961 35.7128 295.5 36.2815 294.959 36.769C294.466 37.199 293.885 37.5184 293.256 37.7053C292.546 37.9086 291.81 38.0057 291.071 37.9937C290.16 38.0085 289.251 37.8872 288.377 37.634C287.601 37.3946 286.856 37.0679 286.155 36.6605L288.013 32.6956C288.387 32.917 288.784 33.0984 289.196 33.2369C289.576 33.3725 289.976 33.4451 290.38 33.4521C290.781 33.4734 291.179 33.3796 291.527 33.1821C291.869 32.9234 292.139 32.5824 292.31 32.1915L284.672 12.7947H290.537L294.973 25.9511L299.231 12.7947H305Z" fill="#005EEC"/>
</svg>
