<svg width="176" height="25" viewBox="0 0 176 25" fill="none" xmlns="http://www.w3.org/2000/svg">
<path d="M57.7576 0.613766V14.4358C57.7576 17.4897 59.4519 19.293 62.3923 19.293C65.6817 19.293 67.5723 17.2894 67.5723 13.4331V0.613766H73.7031V24.4H67.5768V21.6445C66.1327 23.8978 63.7893 25 60.5505 25C55.0684 25.0017 51.6302 20.9955 51.6302 15.186V0.613766H57.7576ZM123.596 0.163717C130.574 0.177533 135.497 5.79434 135.48 12.4104C135.481 13.0646 135.43 13.7179 135.327 14.3639L117.287 14.3301C117.979 17.1851 120.317 19.2426 123.857 19.2502C125.999 19.2502 128.293 18.4572 129.692 16.657L133.872 20.0246C131.723 23.0758 127.931 24.8715 123.896 24.8636C116.774 24.8394 111.301 19.4706 111.313 12.5098C111.327 5.84926 116.071 0.149901 123.596 0.163717ZM162.495 0.163717C166.233 0.163717 168.376 1.31492 169.821 3.51957L170.395 0.610658H176V24.4H170.395L169.671 21.9505C168.027 23.7538 165.983 24.8591 162.495 24.8591C157.112 24.8515 150.982 20.0937 150.982 12.6829C150.982 5.22167 157.012 0.163717 162.495 0.163717ZM36.8971 0.163717C43.9237 0.163717 49.5058 5.67483 49.5058 12.4826C49.5058 19.2426 43.9237 24.8515 36.8971 24.8515C29.9193 24.8515 24.3385 19.2364 24.3385 12.4826C24.3385 5.67138 29.9193 0.163717 36.8971 0.163717ZM99.934 0.0120888C103.886 0.0120888 107.387 1.77118 109.288 5.03792L103.889 7.90815C103.089 6.29931 101.588 5.39472 99.6872 5.39472C97.8378 5.39472 96.9354 6.0482 96.9354 7.15347C96.9354 10.8734 109.842 8.51156 109.842 17.4103C109.842 22.0351 106.091 24.8484 100.038 24.8484C94.885 24.8439 91.2831 23.1352 89.484 19.215L94.9324 16.3492C95.8327 18.3104 97.6332 19.4661 100.185 19.4661C102.536 19.4661 103.436 18.7131 103.436 17.6566C103.436 13.8296 90.5307 16.1489 90.5307 7.40008C90.5307 2.57492 94.7327 0.0120888 99.934 0.0120888ZM12.5586 0.113289C14.6566 0.098539 16.7254 0.608539 18.5784 1.59733C20.4314 2.58612 22.0104 4.02263 23.1732 5.77741L17.9413 8.8269C17.336 7.95763 16.5302 7.2485 15.5929 6.76011C14.6555 6.27172 13.6144 6.01857 12.5586 6.0223C8.9705 6.0223 6.03006 9.02723 6.03006 12.4826C6.03006 15.9375 8.9705 18.9425 12.5586 18.9425C13.6642 18.9497 14.7532 18.6721 15.7217 18.1361C16.6901 17.6002 17.5057 16.8237 18.0905 15.8809L23.2708 18.9853C22.1223 20.7915 20.5373 22.2761 18.6636 23.3009C16.79 24.3256 14.6887 24.857 12.5555 24.8456C5.58078 24.8515 0 19.2364 0 12.4826C0 5.62302 5.58078 0.113289 12.5586 0.113289ZM89.4475 0L88.3166 5.7484C88.1086 5.7256 87.8989 5.71386 87.6892 5.71317C84.4013 5.72077 82.5107 7.72751 82.5199 11.5825L82.5533 24.3983L76.4242 24.4121L76.3723 0.627582L82.5014 0.613766V3.36932C83.929 1.13117 86.2479 0.0259046 89.4475 0ZM151.038 0.0169243L149.902 5.75911C149.693 5.73702 149.484 5.72527 149.274 5.72388C145.989 5.72388 144.094 7.72613 144.094 11.5825V24.4H137.965V0.612384H144.094V3.3676C145.527 1.13393 147.843 0.0338487 151.038 0.0169243ZM36.8971 6.07273C33.3094 6.07273 30.3689 9.07766 30.3689 12.4826C30.3689 15.9375 33.3094 18.9425 36.8971 18.9425C40.5415 18.9425 43.4758 15.9375 43.4758 12.4826C43.4758 9.078 40.5353 6.07273 36.8971 6.07273ZM163.544 6.07514C162.683 6.07835 161.832 6.25186 161.038 6.58575C160.244 6.91965 159.524 7.40738 158.918 8.0211C158.312 8.6346 157.832 9.36207 157.506 10.162C157.18 10.9618 157.013 11.8185 157.017 12.6829C157.017 15.9883 159.957 18.9425 163.547 18.9425C167.18 18.9425 170.119 15.988 170.119 12.6325C170.112 10.8868 169.416 9.21529 168.183 7.9856C166.949 6.75592 165.281 6.06872 163.544 6.07514ZM123.537 5.77292C120.695 5.77292 118.401 7.46605 117.499 10.0178L129.309 10.0392C128.965 7.63564 126.477 5.77707 123.537 5.77292Z" fill="#0056D2"/>
</svg>
