<svg width="342" height="501" viewBox="0 0 342 501" fill="none" xmlns="http://www.w3.org/2000/svg">
<path d="M218.699 453.504L213.051 486.627L196.676 488.21L202.351 451.219L218.699 453.504Z" fill="#FFEEE3"/>
<path d="M215.296 484.342C214.96 483.174 213.742 482.733 212.861 483.434C211.177 484.836 208.145 486.523 203.819 485.926C199.31 485.329 197.704 482.577 197.108 480.656C196.797 479.644 195.839 479.099 194.984 479.488L164.333 492.364C162.623 493.142 161.276 494.674 160.576 496.595C159.903 498.412 161.069 500.411 162.779 500.437L212.99 500.748C214.856 500.748 216.359 498.983 216.255 496.828L215.814 486.341C215.814 486.159 215.789 486.004 215.737 485.822L215.296 484.342Z" fill="#1F252A"/>
<path d="M284.894 301.101H291.579V496.387H284.894V301.101Z" fill="#2A272D"/>
<path d="M299.372 260.943L251.492 349.046L221.204 471.441H193.714L213.327 335.418L299.372 260.943Z" fill="#232322"/>
<path d="M259.864 298.22H319.714C328.29 298.22 335.26 291.263 335.26 282.644C335.26 274.052 328.316 267.069 319.714 267.069H259.864C251.288 267.069 244.319 274.052 244.319 282.644C244.319 291.263 251.288 298.22 259.864 298.22Z" fill="#178C8C"/>
<path d="M259.504 298.22H317.022V303.982H259.504V298.22Z" fill="#2A272D"/>
<path d="M259.504 448.987H317.022V454.75H259.504V448.987Z" fill="#2A272D"/>
<path d="M291.347 101.377C302.877 99.9752 313.81 106.958 318.215 117.705C321.946 126.764 325.055 139.899 321.738 155.137C311.634 201.785 317.671 234.051 317.671 234.051H262.925L263.132 170.531C263.132 170.531 259.349 163.132 257.302 153.45C254.426 139.899 255.515 138.134 263.417 126.141L280.232 105.582C280.206 105.582 283.963 102.26 291.347 101.377Z" fill="#178C8C"/>
<path d="M191.77 146.389C188.117 139.069 179.256 136.109 171.95 139.769C164.643 143.43 161.69 152.307 165.343 159.628C168.996 166.948 177.857 169.907 185.163 166.247C192.47 162.613 195.423 153.709 191.77 146.389Z" fill="#FFEEE3"/>
<path d="M188.535 142.106L216.361 168.584L205.79 180.369L184.104 161.757L188.535 142.106Z" fill="#FFEEE3"/>
<path d="M310.106 142.469L259.764 219.125C257.821 222.058 253.831 222.759 251.007 220.63L190.251 172.815L202.557 151.658L249.556 187.637L282.409 126.764C286.788 117.627 298.421 114.849 306.453 120.975C313.137 126.063 314.718 135.46 310.106 142.469Z" fill="#178C8C"/>
<path d="M288.184 112.98C291.371 112.954 294.765 111.63 297.278 110.332C299.765 109.06 301.32 106.438 301.294 103.635L300.776 52.1333L278.313 52.2372L278.831 103.09C278.857 108.931 283.054 113.006 288.184 112.98Z" fill="#FFEEE3"/>
<path d="M278.682 88.8128L287.957 75.6518C287.957 75.6518 293.631 90.6818 278.734 95.3024L278.682 88.8128Z" fill="#F2C09E"/>
<path d="M258.445 52.3407C258.522 67.6822 270.985 80.0385 286.297 79.9606C301.609 79.8828 313.942 67.3967 313.864 52.0552C313.786 36.7137 301.324 24.3575 286.012 24.4354C270.725 24.5133 258.393 36.9992 258.445 52.3407Z" fill="#FFEEE3"/>
<path d="M276.713 88.9685C283.967 88.9426 289.849 82.9981 289.797 75.7297L289.719 56.728L258.473 52.341L258.55 70.9533C258.602 80.9473 266.712 89.0204 276.713 88.9685Z" fill="#FFEEE3"/>
<path d="M259.303 58.5448L253.292 67.5005C252.437 68.9542 253.551 70.7454 255.339 70.7454L262.36 72.0433L259.303 58.5448Z" fill="#FFEEE3"/>
<path d="M289.683 64.3341L277.894 63.9188C277.894 63.9188 276.884 53.6649 274.578 51.1988C272.272 48.7328 271.106 37.7785 271.106 37.7785C271.106 37.7785 276.677 44.6056 278.309 51.6663L253.618 51.0431C253.618 51.0431 249.938 21.0351 287.325 19.5814C324.738 18.1278 323.701 53.587 316.343 60.6218C310.488 66.2288 301.005 79.9871 301.005 79.9871C301.005 79.9871 301.445 64.7494 289.683 64.3341Z" fill="#4C1827"/>
<path d="M281.137 60.6997C280.982 65.0867 284.402 68.7468 288.754 68.9026C293.133 69.0583 296.786 65.6318 296.968 61.2707C297.123 56.8837 293.703 53.2238 289.351 53.0421C284.972 52.8864 281.318 56.3127 281.137 60.6997Z" fill="#FFEEE3"/>
<path d="M303.988 15.7394C302.796 25.5777 309.765 34.5075 319.559 35.7275C329.379 36.9216 338.291 29.9388 339.509 20.1005C340.701 10.2622 333.731 1.33248 323.912 0.138381C314.092 -1.08167 305.18 5.90116 303.988 15.7394Z" fill="#4C1827"/>
<path d="M300.414 107.192C300.414 107.192 298.263 113.915 268.261 120.171L282.2 101.169L300.414 107.192Z" fill="#FFEEE3"/>
<path d="M288.237 486.523L328.448 500.307H248.078L288.237 486.523Z" fill="#2A272D"/>
<path d="M285.208 403.949L307.205 430.452L291.4 436.475L269.326 408.414L285.208 403.949Z" fill="#FFEEE3"/>
<path d="M306.45 426.844C305.672 425.936 304.377 425.988 303.859 427C302.874 428.973 300.801 431.724 296.578 432.919C292.2 434.165 287.406 430.323 286.111 428.791C285.437 427.986 284.323 427.857 283.701 428.583L256.782 447.507C255.538 448.909 254.916 450.856 255.02 452.907C255.124 454.828 256.989 456.203 258.57 455.528L311.839 442.03C313.549 441.277 314.222 439.045 313.264 437.124L307.719 428.454C307.641 428.298 307.538 428.142 307.434 428.012L306.45 426.844Z" fill="#1F252A"/>
<path d="M319.247 234.051C319.247 234.051 335.725 271.638 277.171 291.652L236.701 329.318L299.349 413.372L271.341 423.522L195.272 342.427C189.65 335.859 189.416 325.788 194.728 318.935L262.895 234.025H319.247V234.051Z" fill="#383635"/>
<path d="M0.619202 200.85H200.664V212.012H0.619202V200.85Z" fill="#178C8C"/>
<path d="M151.457 500.359V212.012" stroke="#2A272D" stroke-width="2.2811" stroke-miterlimit="10"/>
<path d="M51.4243 500.359V212.012" stroke="#2A272D" stroke-width="2.2811" stroke-miterlimit="10"/>
<path d="M75.0586 194.776H158.278V200.175H75.0586V194.776Z" fill="#2A272D"/>
<path d="M75.0612 200.201L48.1157 121.391L53.7639 120.041L80.1653 195.736L75.0612 200.201Z" fill="#2A272D"/>
<path d="M263.619 213.258L303.804 152.048L263.619 213.258Z" fill="#178C8C"/>
<path d="M263.619 213.258L303.804 152.048" stroke="#0E8585" stroke-width="0.7847" stroke-miterlimit="10" stroke-linecap="round" stroke-linejoin="round"/>
<path d="M261.191 165.234L276.529 140.937" stroke="#0E8585" stroke-width="0.7847" stroke-miterlimit="10" stroke-linecap="round" stroke-linejoin="round"/>
</svg>
