<svg width="136" height="215" viewBox="0 0 136 215" fill="none" xmlns="http://www.w3.org/2000/svg">
<g opacity="0.7">
<path opacity="0.7" fill-rule="evenodd" clip-rule="evenodd" d="M12.4911 61.8617C19.8165 61.4818 28.8766 65.7578 29.6579 73.7207C30.2256 79.5061 30.0501 85.2754 30.9285 91.0527C31.6309 95.6695 33.1167 100.102 35.1434 104.307C37.0922 108.352 41.1343 111.794 42.1854 116.115C42.8556 118.868 42.4806 122.741 41.5566 125.433C40.433 128.707 41.0302 128.449 43.2693 131.196C47.657 136.579 51.6083 142.1 54.4023 148.53C58.4267 157.792 61.0656 168.617 59.5717 178.755C59.3818 180.042 59.1564 184.662 57.3836 184.985C55.4036 185.346 56.3297 182.704 56.4354 181.85C57.1088 176.404 57.7076 171.644 56.8947 166.113C53.7595 144.773 38.4503 130.713 28.4817 112.601C27.9339 111.667 26.777 109.443 25.9727 107.976C24.7026 105.659 23.4261 101.252 21.7068 99.5334C18.4691 96.2978 21.4461 102.803 22.0765 104.045C22.8744 105.616 23.7517 107.286 24.5695 108.662C28.3095 115.043 32.4841 122.008 36.3464 128.586C19.641 132.392 7.87594 112.308 3.39281 99.1047C-0.301011 88.2266 -4.72029 62.7927 12.4911 61.8617Z" fill="#69A1AC"/>
<path opacity="0.7" fill-rule="evenodd" clip-rule="evenodd" d="M110.676 41.66C98.4305 42.6317 90.5685 50.7126 86.909 62.0152C84.9365 68.1059 84.7101 74.363 83.6139 80.6227C81.9655 90.0397 78.4176 97.1767 71.4839 103.886C69.3365 105.964 67.7536 108.097 66.629 110.38C64.3957 112.659 62.4517 115.238 61.0233 118.39C59.1989 122.417 58.6827 127.248 60.7888 131.262C61.3554 132.342 62.7683 134.508 64.2326 135.492C58.7503 147.168 55.7358 159.956 56.0755 172.728C56.281 180.437 56.6571 188.15 57.0966 195.85C57.2146 197.917 57.8881 201.331 58.899 197.864C59.8246 194.692 58.6639 189.713 58.5566 186.4C58.034 170.26 57.5876 155.584 64.2315 140.503C64.9285 138.923 65.6674 137.355 66.4363 135.8C66.4819 135.774 66.5238 135.742 66.5662 135.711C66.5951 135.734 66.622 135.758 66.6515 135.78C66.7003 135.692 66.7679 135.588 66.8463 135.472C67.0668 135.244 67.2594 134.956 67.4429 134.635C68.0321 133.819 68.6991 132.859 68.7028 132.334C68.7028 132.33 68.7007 132.323 68.7007 132.319C72.8136 125.605 77.5247 119.261 82.3368 113.04C82.3009 113.086 87.5567 105.929 86.7443 109.887C86.3526 111.794 82.4865 115.426 80.9251 117.446C77.4711 121.94 73.4151 127.635 70.0448 133.141C69.5914 133.402 68.9507 134.681 68.4871 135.635C68.2312 136.117 67.9924 136.604 67.7579 137.029C79.7006 140.974 88.9904 133.026 95.3253 123.782C95.3328 123.771 95.3398 123.759 95.3468 123.749C97.2747 121.195 99.2493 118.658 101.716 116.639C105.832 113.269 110.24 112.675 115.093 111.017C128.327 106.495 133.954 89.3437 135.741 76.6177C137.757 62.2604 127.895 40.2445 110.676 41.66Z" fill="#89C5CC"/>
<path opacity="0.7" fill-rule="evenodd" clip-rule="evenodd" d="M86.4863 1.45413C73.9174 14.5349 67.8449 32.6788 63.0371 49.7362C57.667 68.7869 54.1197 88.1317 53.9834 107.939C53.8944 120.953 53.5402 134.047 54.3 147.046C54.5694 151.662 55.0297 156.287 55.7611 160.853C55.8217 161.228 57.4589 171.425 59.0251 169.049C59.9159 167.698 57.3467 158.472 57.153 156.935C56.0611 148.279 55.8073 139.56 55.8604 130.842C55.9478 116.488 55.525 102.208 56.9797 87.9074C57.1965 85.7719 57.3682 83.5295 57.8752 81.4406C58.414 79.2197 57.7277 80.1893 59.4818 79.3098C61.1865 78.4556 63.2926 78.5774 65.0611 77.5053C72.0753 73.2518 75.6634 62.326 78.4563 55.1573C81.6506 46.9599 83.5919 38.2179 85.1427 29.5908C86.2813 23.2527 87.0953 16.9527 87.5557 10.5325C87.7011 8.50909 87.7097 6.39336 88.1073 4.40372C88.2146 3.86714 88.7517 2.91793 88.7324 2.44252C88.6911 1.43643 88.0842 0.845114 88.0343 0C87.5079 0.473264 86.9917 0.958328 86.4863 1.45413Z" fill="#89C5CC"/>
<path opacity="0.7" fill-rule="evenodd" clip-rule="evenodd" d="M17.9524 175.74C17.9524 197.374 35.4895 214.911 57.1228 214.911C78.7561 214.911 96.2932 197.374 96.2932 175.74" fill="#89C5CC"/>
<path opacity="0.7" fill-rule="evenodd" clip-rule="evenodd" d="M83.9667 141.445C93.6611 140.73 104.487 148.551 109.163 156.69C112.933 163.252 112.298 171.869 109.97 178.841C108.411 183.508 105.008 190.162 99.3327 190.227C92.2327 190.308 91.8904 181.533 91.753 176.403C91.5706 169.583 90.7088 163.642 85.3344 158.993C84.6712 158.419 83.9747 157.882 83.2788 157.345C82.6606 156.868 82.043 156.392 81.448 155.889C81.353 155.809 81.257 155.729 81.1614 155.649C79.2609 154.051 77.2653 152.374 77.0223 149.741C76.6703 145.926 78.8236 145.239 82.1117 145.948C82.218 145.971 82.5061 146.08 82.8978 146.228C84.5773 146.865 88.1606 148.223 87.4829 146.6C87.2275 145.988 86.2954 145.503 85.1187 145.14C82.0742 144.809 78.4426 144.424 77.3984 144.654C66.1329 147.125 61.7463 162.731 60.5814 172.646C60.4559 173.716 60.3545 174.789 60.2654 175.865H58.1958C58.3396 173.268 58.529 170.676 58.9631 168.108C60.6238 158.287 65.8152 143.863 77.2015 142.268C77.6216 142.209 79.167 142.199 81.0386 142.309C81.9255 141.813 82.9193 141.513 83.9667 141.445Z" fill="#69A1AC"/>
</g>
</svg>
